<svg version="1.1" id="designs" xmlns="http://www.w3.org/2000/svg" xmlns:xlink="http://www.w3.org/1999/xlink" x="0px" y="0px"
	 width="32px" height="32px" viewBox="0 0 32 32" style="enable-background:new 0 0 32 32;" xml:space="preserve">
<style type="text/css">
	.sketchy_een{fill:#111918;}
</style>
<path class="sketchy_een" d="M29.947,27.459c-0.004-0.016-0.005-0.033-0.01-0.049c-0.005-0.013-0.01-0.025-0.016-0.037
	c-0.039-0.108-0.098-0.211-0.177-0.305c-0.001-0.001-0.002-0.003-0.004-0.004c-0.33-0.472-0.51-1.022-0.796-1.52
	c-0.348-0.612-0.687-1.232-1.019-1.851c-0.277-0.521-0.542-1.048-0.811-1.572c0.018-0.064,0.04-0.127,0.04-0.194
	c0-0.323-0.22-0.612-0.518-0.718c-0.289-0.54-0.58-1.077-0.862-1.621c-0.381-0.734-0.757-1.471-1.149-2.199
	c-0.39-0.725-0.807-1.434-1.214-2.15c-0.405-0.717-0.817-1.433-1.214-2.154c-0.311-0.565-0.633-1.121-0.962-1.675
	c0.136-0.33,0.039-0.772-0.3-0.937c-0.107-0.052-0.206-0.084-0.31-0.104c-0.536-0.897-1.055-1.802-1.53-2.734
	c-0.3-0.589-0.604-1.174-0.91-1.76c-0.306-0.585-0.602-1.17-0.964-1.725c-0.096-0.147-0.231-0.257-0.38-0.327
	c-0.068-0.128-0.157-0.245-0.286-0.32c-0.124-0.072-0.26-0.106-0.395-0.106c-0.275,0-0.545,0.142-0.694,0.391
	c-0.432,0.727-0.849,1.463-1.27,2.196C13.8,6.67,13.397,7.353,13.018,8.05c-0.365,0.673-0.746,1.339-1.111,2.01
	c-0.388,0.713-0.754,1.44-1.128,2.159c-0.734,1.415-1.547,2.79-2.396,4.139c-0.438,0.694-0.893,1.373-1.31,2.081
	c-0.201,0.343-0.404,0.687-0.61,1.025c-0.191,0.314-0.396,0.62-0.585,0.933c-0.344,0.568-0.623,1.171-0.937,1.754
	c-0.329,0.612-0.7,1.201-1.052,1.8c-0.337,0.572-0.646,1.161-0.951,1.754c-0.117,0.23-0.226,0.463-0.339,0.694
	c-0.126,0.256-0.273,0.505-0.419,0.752c-0.009,0.015-0.008,0.032-0.016,0.047C2.068,27.325,2,27.474,2,27.648
	c0,0.411,0.352,0.792,0.776,0.776c1.618-0.063,3.24-0.074,4.862-0.082c0.323,0,0.648,0,0.972,0c0.488,0,0.973,0,1.461-0.006
	c0.822-0.01,1.645-0.032,2.467-0.05c0.968-0.019,1.935-0.011,2.905-0.004c0.581,0.004,1.163,0.008,1.746,0.006
	c0.811-0.002,1.624,0,2.435,0.038c0.369,0.017,0.74,0.057,1.111,0.067c0.402,0.011,0.805,0.013,1.209,0.019
	c0.616,0.008,1.234-0.002,1.849,0.023c0.293,0.013,0.585,0.017,0.878,0.025c0.302,0.006,0.604,0.027,0.905,0.032
	c0.581,0.012,1.163,0.017,1.744,0.021c0.295,0.002,0.591,0.023,0.885,0.027c0.308,0.006,0.612,0.029,0.918,0.061
	c0.22,0.023,0.471-0.107,0.62-0.256C29.908,28.182,30,27.958,30,27.726C30,27.634,29.975,27.546,29.947,27.459z M24.984,21.144
	c-0.218-0.001-0.436-0.001-0.655-0.01c-0.198-0.008-0.397-0.01-0.596-0.01c-0.5,0-1.001,0.018-1.501,0.022
	c-0.51,0.004-1.02,0.019-1.529,0.032c-0.028-0.619-0.015-1.239-0.03-1.858c-0.021-0.815-0.055-1.627-0.126-2.44
	c-0.004-0.043-0.019-0.079-0.025-0.12c0.304,0.008,0.608,0.016,0.913,0.02c0.117,0.002,0.233,0.002,0.35,0
	c0.134,0,0.268-0.002,0.402,0c0.138,0.002,0.277,0.008,0.416,0.013c0.195,0.337,0.392,0.672,0.583,1.011
	c0.402,0.709,0.78,1.432,1.163,2.152C24.559,20.352,24.772,20.748,24.984,21.144z M13.54,21.264
	c-0.313,0.008-0.625,0.003-0.938,0.007c-0.031-0.634-0.029-1.27-0.024-1.902c0.009-0.866,0.038-1.729,0.033-2.594
	c0.914-0.008,1.827-0.014,2.741-0.024c0.778-0.008,1.555-0.031,2.331-0.031c0.358,0,0.717,0.007,1.075,0.013
	c-0.008,0.049-0.013,0.099-0.008,0.146c0.082,0.813,0.143,1.626,0.193,2.44c0.019,0.323,0.033,0.648,0.048,0.972
	c0.013,0.299,0.031,0.6,0.015,0.897c-0.374-0.007-0.747-0.017-1.12-0.022C16.438,21.147,14.99,21.23,13.54,21.264z M17.214,11.777
	c0.51,0.009,1.019,0.021,1.53,0.042c0.306,0.013,0.614,0.017,0.92,0.017c0.024,0,0.05,0,0.074,0
	c0.352,0.582,0.705,1.163,1.034,1.758c0.315,0.571,0.642,1.134,0.968,1.697c-0.282,0.001-0.563,0.007-0.845,0.013
	c-0.516,0.013-1.033,0.011-1.547,0.01c-0.241-0.002-0.482-0.002-0.721-0.002c-0.454,0.002-0.907,0.015-1.36,0.025
	C17.292,14.149,17.276,12.963,17.214,11.777z M14.487,8.489c0.53-0.968,1.112-1.907,1.696-2.846c0.743,1.184,1.4,2.42,2.076,3.642
	c0.205,0.371,0.424,0.733,0.636,1.099c-0.083-0.003-0.167-0.006-0.249-0.007c-0.572-0.01-1.142,0-1.714,0.002
	c-1.138,0.005-2.271-0.073-3.405-0.136C13.846,9.658,14.167,9.074,14.487,8.489z M11.287,14.38c0.39-0.683,0.784-1.362,1.142-2.062
	c0.127-0.249,0.261-0.494,0.391-0.741c0.116,0.074,0.247,0.129,0.394,0.135c0.786,0.033,1.573,0.041,2.36,0.046
	c0.045,0.572,0.093,1.143,0.115,1.716c0.013,0.343,0.017,0.687,0.015,1.029c-0.002,0.286-0.024,0.571-0.037,0.856
	c-0.555,0.01-1.109,0.022-1.664,0.012c-1.091-0.021-2.182-0.05-3.273-0.059C10.916,15.001,11.107,14.694,11.287,14.38z
	 M8.743,18.492c0.424-0.678,0.867-1.342,1.293-2.017c0.135,0.188,0.344,0.32,0.589,0.318c0.104,0,0.208-0.002,0.311-0.003
	c0.021,0.873,0.053,1.744,0.08,2.617c0.013,0.438,0.031,0.878,0.042,1.318c0.004,0.183,0.008,0.365,0.012,0.548
	c-0.648-0.019-1.294-0.046-1.94-0.063c-0.467-0.013-0.933-0.006-1.398,0c-0.202,0.002-0.404,0.004-0.606,0.005
	c0.134-0.227,0.269-0.454,0.407-0.681C7.942,19.858,8.323,19.164,8.743,18.492z M6.67,26.896c-0.654,0-1.306,0.011-1.96,0.002
	c-0.219-0.003-0.438-0.01-0.657-0.017c0.086-0.182,0.172-0.364,0.257-0.546c0.312-0.664,0.65-1.312,1.027-1.941
	c0.325-0.545,0.651-1.09,0.957-1.645c0.404-0.013,0.809-0.028,1.213-0.045c0.151,1.241,0.308,2.482,0.461,3.721
	c0.023,0.182,0.074,0.332,0.172,0.473C7.651,26.895,7.16,26.896,6.67,26.896z M12.854,26.841c-0.819,0.032-1.635,0.063-2.454,0.073
	c-0.325,0.004-0.649-0.003-0.973-0.007c0.105-0.139,0.189-0.313,0.173-0.48c-0.119-1.249-0.231-2.498-0.363-3.745
	c0.165,0.006,0.331,0.006,0.496,0.011c0.358,0.015,0.715,0.015,1.073,0.021c0.216,0.002,0.431,0.008,0.646,0.013
	c0.129,0.086,0.275,0.146,0.433,0.146c0.168,0,0.308-0.063,0.431-0.148c0.229-0.005,0.457-0.007,0.686-0.015
	c0.738-0.025,1.477-0.023,2.213-0.046c0.077-0.002,0.154,0,0.231-0.001c-0.042,0.834-0.08,1.669-0.091,2.503
	c-0.006,0.375-0.011,0.75-0.015,1.127c-0.001,0.167,0.002,0.336,0,0.505c-0.046,0-0.092,0.001-0.138,0.001
	C14.418,26.812,13.636,26.812,12.854,26.841z M19.946,26.826c-0.82-0.031-1.641-0.052-2.461-0.052c-0.183,0-0.365,0.005-0.548,0.006
	c0.005-0.15,0.008-0.3,0.016-0.449c0.019-0.388,0.04-0.777,0.061-1.165c0.046-0.837,0.099-1.675,0.152-2.513
	c0.063,0,0.127-0.001,0.19-0.001c0.711,0.004,1.421,0.038,2.131,0.04c0.731,0,1.459-0.036,2.188-0.036
	c0.201,0,0.402,0.004,0.603,0.004c0.004,0.706,0.007,1.412,0.025,2.119c0.017,0.696,0.052,1.394,0.069,2.093
	c0,0.007,0.004,0.012,0.004,0.019c-0.026,0-0.051-0.002-0.077-0.002C21.512,26.889,20.73,26.856,19.946,26.826z M26.842,26.94
	c-0.371,0.002-0.742,0.015-1.113,0.01c-0.362-0.006-0.723,0-1.086-0.008c-0.213-0.005-0.427-0.008-0.64-0.014
	c0.001-0.02,0.011-0.036,0.011-0.056c-0.033-0.671-0.002-1.343,0.013-2.012c0.016-0.729,0.021-1.458,0.025-2.185
	c0.318,0.006,0.636,0.01,0.954,0.02c0.222,0.008,0.444,0.004,0.666,0c0.043-0.001,0.086,0.001,0.13,0
	c0.173,0.336,0.348,0.672,0.519,1.01c0.275,0.551,0.566,1.094,0.853,1.639c0.126,0.241,0.243,0.486,0.369,0.725
	c0.113,0.216,0.224,0.428,0.319,0.652c0.028,0.066,0.061,0.13,0.09,0.195C27.581,26.925,27.213,26.938,26.842,26.94z"/>
</svg>