<?xml version="1.0" standalone="yes"?>
<svg xmlns="http://www.w3.org/2000/svg" width="1000" height="524">
<path style="fill:#fffffe; stroke:none;" d="M0 0L0 272L1 272C5.81621 239.868 61.7467 219.243 78 254C74.631 255.796 71.1016 261.485 67 261.115C63.6942 260.817 60.7753 256.972 58 255.363C52.2423 252.027 45.4998 251.284 39 252.465C13.7118 257.056 9.01178 294.952 30.0039 307.881C37.9246 312.76 48.707 313.187 57 309.001C60.388 307.29 63.3676 303.112 67 302.203C70.6112 301.299 76.9444 307.455 76.9444 310.996C76.9444 320.558 55.2397 326.641 48 326.961C26.1089 327.928 4.35911 313.746 1 291L0 291L0 524L1000 524L1000 327L983 327L983 196L1000 196L1000 0L0 0z"/>
<path style="fill:#f9c33d; stroke:none;" d="M192 196L192 326L193 326L193 235C193 223.842 196.308 206.266 192 196z"/>
<path style="fill:#717270; stroke:none;" d="M193 196L193 327L209 327L209 196L193 196z"/>
<path style="fill:#f9c33d; stroke:none;" d="M497 196L497 327L498 327L498 236C498 224.58 501.408 206.504 497 196z"/>
<path style="fill:#717270; stroke:none;" d="M498 196L498 327L558 327L558 297L526 297L527 273L527 226L589 226L589 196L498 196z"/>
<path style="fill:#cb726b; stroke:none;" d="M594 196C594 201.563 591.046 220.362 595.603 223.972C600.586 227.918 616.738 225 623 225L623 196L594 196z"/>
<path style="fill:#f9c33d; stroke:none;" d="M623 196L623 225L624 225L623 196z"/>
<path style="fill:#717270; stroke:none;" d="M875 196L875 248C869.458 243.277 863.242 239.063 856 237.518C850.167 236.273 842.779 236.496 837 237.9C785.277 250.461 799.862 334.929 853 326.561C861.438 325.232 868.315 321.138 875 316L875 327L892 327L892 196L875 196z"/>
<path style="fill:#f9c33d; stroke:none;" d="M983 196L983 327L984 327L984 236C984 224.58 987.408 206.504 983 196z"/>
<path style="fill:#717270; stroke:none;" d="M984 196L984 327L1000 327L1000 196L984 196z"/>
<path style="fill:#f9c33d; stroke:none;" d="M594 224L595 225L594 224M589 225L590 226L589 225z"/>
<path style="fill:#717270; stroke:none;" d="M532 230L532 259L589 259L589 230L532 230z"/>
<path style="fill:#f9c33d; stroke:none;" d="M589 230L590 231L589 230M594 230L594 231L623 231L594 230z"/>
<path style="fill:#717270; stroke:none;" d="M594 231L594 241L595 241L596 231L594 231z"/>
<path style="fill:#2e87c3; stroke:none;" d="M623 258L623 231C616.205 231 603.517 228.516 597.434 231.603C592.634 234.039 592.926 255.072 597.314 257.632C602.642 260.741 616.748 258 623 258z"/>
<path style="fill:#f9c33d; stroke:none;" d="M42 236L42 237L47 237L42 236M124 236L124 237L130 237L124 236M155 236L155 237L171 237L171 327L156 327C159.352 328.407 169.403 329.733 171.397 325.682C173.809 320.779 172 311.396 172 306L172 258C172 253.103 174.124 241.582 170.972 237.603C168.336 234.275 158.831 236 155 236M264 236L264 237L270 237L264 236M413 236L413 237L419 237L413 236M844 236L844 237L851 237L844 236M936 236L936 237L942 237L936 236M34 237L35 238L34 237z"/>
<path style="fill:#cb726b; stroke:none;" d="M35 237L36 238L35 237z"/>
<path style="fill:#717270; stroke:none;" d="M79 311L79 310L67 300C64.1581 303.902 60.3167 307.117 56 309.33C19.2456 328.176 -0.870056 259.32 39 252.329C43.0706 251.615 48.0193 251.64 52 252.789C57.9374 254.503 62.6405 258.831 67 263C70.1495 260.781 76.7932 256.401 76.7932 252.039C76.7932 243.756 58.3145 238.112 52 237.289C33.1017 234.827 15.3318 242.342 5.47531 259C-8.90418 283.302 4.75009 318.152 32 325.511C50.0213 330.378 66.2734 323.691 79 311z"/>
<path style="fill:#cb726b; stroke:none;" d="M53 237L54 238L53 237z"/>
<path style="fill:#f9c33d; stroke:none;" d="M54 237L55 238L54 237M117 237L118 238L117 237z"/>
<path style="fill:#cb726b; stroke:none;" d="M118 237L119 238L118 237z"/>
<path style="fill:#717270; stroke:none;" d="M155 316L155 327L171 327L171 237L155 237L155 248C148.336 243.228 141.407 238.088 133 237.174C125.932 236.405 118.717 237.042 112 239.359C64.8383 255.625 81.253 331.82 131 326.829C140.222 325.904 147.355 320.714 155 316z"/>
<path style="fill:#f9c33d; stroke:none;" d="M135.667 237.333L136.333 237.667L135.667 237.333M257 237L258 238L257 237z"/>
<path style="fill:#cb726b; stroke:none;" d="M258 237L259 238L258 237z"/>
<path style="fill:#717270; stroke:none;" d="M307 303C303.13 301.941 297.152 297.843 293.184 298.816C288.265 300.023 284.173 307.316 279 309.532C262.164 316.745 244.666 305.79 242 288L308 288C308 271.118 305.236 255.502 291 244.529C264.914 224.424 229.226 244.71 225.289 275C223.101 291.84 229.128 309.086 243 319.39C263.556 334.66 296.707 326.549 307 303z"/>
<path style="fill:#f9c33d; stroke:none;" d="M275.667 237.333L276.333 237.667L275.667 237.333M405 237L406 238L405 237z"/>
<path style="fill:#cb726b; stroke:none;" d="M406 237L407 238L406 237z"/>
<path style="fill:#717270; stroke:none;" d="M407 237.439C350.885 246.276 365.742 335.348 422 326.561C466.08 319.676 473.92 254.539 431 239.09C423.642 236.442 414.694 236.228 407 237.439z"/>
<path style="fill:#f9c33d; stroke:none;" d="M425 237L426 238L425 237z"/>
<path style="fill:#717270; stroke:none;" d="M622.333 237.667L622.667 238.333L622.333 237.667z"/>
<path style="fill:#f9c33d; stroke:none;" d="M838 237L839 238L838 237M856 237L857 238L856 237M930 237L931 238L930 237z"/>
<path style="fill:#717270; stroke:none;" d="M921 298L907 303C912.818 335.619 967.022 334.301 967.871 300C968.278 283.552 952.864 277.882 940 273.05C934.208 270.874 924.133 267.121 927.049 259.004C932.873 242.797 945.24 257.632 953.17 259.123C957.005 259.844 962.515 255.451 966 254C955.092 232.103 913.478 229.363 911.093 259C909.81 274.959 920.816 281.327 934 286.6C939.665 288.866 948.849 291.215 950.551 298.015C952.771 306.884 942.762 313.206 935 311.655C928.308 310.318 923.744 303.767 921 298z"/>
<path style="fill:#f9c33d; stroke:none;" d="M946 237L947 238L946 237M30 238L31 239L30 238M58 238L59 239L58 238z"/>
<path style="fill:#cb726b; stroke:none;" d="M114 238L115 239L114 238M254 238L255 239L254 238M279 238L280 239L279 238z"/>
<path style="fill:#f9c33d; stroke:none;" d="M401 238L402 239L401 238M429 238L430 239L429 238M834 238L835 239L834 238M859 238L860 239L859 238M927 238L928 239L927 238z"/>
<path style="fill:#cb726b; stroke:none;" d="M28 239L29 240L28 239z"/>
<path style="fill:#f9c33d; stroke:none;" d="M111 239L112 240L111 239M141 239L142 240L141 239z"/>
<path style="fill:#cb726b; stroke:none;" d="M251 239L252 240L251 239z"/>
<path style="fill:#f9c33d; stroke:none;" d="M282 239L283 240L282 239M398 239L399 240L398 239M432 239L433 240L432 239M695.667 239.333L696.333 239.667L695.667 239.333z"/>
<path style="fill:#cb726b; stroke:none;" d="M697 239L698 240L697 239z"/>
<path style="fill:#717270; stroke:none;" d="M678 249L678 242L661 242L661 327L678 327C678 309.172 673.393 283.729 680.144 267C684.619 255.911 700.689 250.74 709.895 259.225C715.848 264.711 716.905 274.318 716.996 282C717.174 296.995 717 312.003 717 327L733 327C733 308.536 729.014 284.509 735.714 267C739.764 256.417 754.687 250.817 763.957 258.394C770.907 264.075 771.987 273.609 772 282L772 327L788 327C788 306.73 793.557 276.624 784.597 258C774.293 236.581 740.052 232.229 726 252C712.023 238.14 693.169 234.617 678 249z"/>
<path style="fill:#cb726b; stroke:none;" d="M702 239L703 240L702 239z"/>
<path style="fill:#f9c33d; stroke:none;" d="M703.667 239.333L704.333 239.667L703.667 239.333M747.667 239.333L748.333 239.667L747.667 239.333z"/>
<path style="fill:#cb726b; stroke:none;" d="M749 239L750 240L749 239M755 239L756 240L755 239z"/>
<path style="fill:#f9c33d; stroke:none;" d="M756.667 239.333L757.333 239.667L756.667 239.333M862 239L863 240L862 239z"/>
<path style="fill:#cb726b; stroke:none;" d="M925 239L926 240L925 239z"/>
<path style="fill:#f9c33d; stroke:none;" d="M952 239L953 240L952 239M25 240L26 241L25 240M63 240L64 241L63 240M143 240L144 241L143 240z"/>
<path style="fill:#cb726b; stroke:none;" d="M249 240L250 241L249 240M284 240L285 241L284 240z"/>
<path style="fill:#f9c33d; stroke:none;" d="M396 240L397 241L396 240M434 240L435 241L434 240z"/>
<path style="fill:#cb726b; stroke:none;" d="M691 240L692 241L691 240M708 240L709 241L708 240z"/>
<path style="fill:#f9c33d; stroke:none;" d="M709 240L710 241L709 240M742 240L743 241L742 240z"/>
<path style="fill:#cb726b; stroke:none;" d="M762 240L763 241L762 240z"/>
<path style="fill:#f9c33d; stroke:none;" d="M763 240L764 241L763 240M829 240L830 241L829 240M864 240L865 241L864 240z"/>
<path style="fill:#cb726b; stroke:none;" d="M923 240L924 241L923 240z"/>
<path style="fill:#f9c33d; stroke:none;" d="M23 241L24 242L23 241M145 241L146 242L145 241M286 241L287 242L286 241M324 241L324 242L340 242L324 241M354.667 241.333L355.333 241.667L354.667 241.333z"/>
<path style="fill:#cb726b; stroke:none;" d="M356 241L357 242L356 241z"/>
<path style="fill:#717270; stroke:none;" d="M340 249L340 242L324 242L324 327L340 327C340 302.468 330.598 256.023 366 256L366 242C355.645 240.084 348.611 243.691 340 249z"/>
<path style="fill:#cb726b; stroke:none;" d="M363.667 241.333L364.333 241.667L363.667 241.333z"/>
<path style="fill:#f9c33d; stroke:none;" d="M365 241L366 242L365 241M394 241L395 242L394 241M436 241L437 242L436 241M688 241L689 242L688 241M739 241L740 242L739 241M766 241L767 242L766 241M827 241L828 242L827 241M955 241L956 242L955 241z"/>
<path style="fill:#cb726b; stroke:none;" d="M105 242L106 243L105 242z"/>
<path style="fill:#f9c33d; stroke:none;" d="M245 242L246 243L245 242z"/>
<path style="fill:#cb726b; stroke:none;" d="M351 242L352 243L351 242z"/>
<path style="fill:#f9c33d; stroke:none;" d="M366 242L366 256L367 256L366 242M392 242L393 243L392 242M686 242L687 243L686 242z"/>
<path style="fill:#cb726b; stroke:none;" d="M713 242L714 243L713 242M737 242L738 243L737 242z"/>
<path style="fill:#f9c33d; stroke:none;" d="M768 242L769 243L768 242z"/>
<path style="fill:#cb726b; stroke:none;" d="M867 242L868 243L867 242M920 242L921 243L920 242z"/>
<path style="fill:#f9c33d; stroke:none;" d="M68 243L69 244L68 243M148 243L149 244L148 243M289 243L290 244L289 243M348 243L349 244L348 243M439 243L440 244L439 243M684 243L685 244L684 243M735 243L736 244L735 243M770 243L771 244L770 243M18 244L19 245L18 244M242 244L243 245L242 244M346 244L347 245L346 244M389 244L390 245L389 244M717 244L718 245L717 244M733 244L734 245L733 244M772 244L773 245L772 244M870 244L871 245L870 244z"/>
<path style="fill:#cb726b; stroke:none;" d="M17 245L18 246L17 245z"/>
<path style="fill:#f9c33d; stroke:none;" d="M151 245L152 246L151 245z"/>
<path style="fill:#cb726b; stroke:none;" d="M241 245L242 246L241 245z"/>
<path style="fill:#f9c33d; stroke:none;" d="M292 245L293 246L292 245z"/>
<path style="fill:#cb726b; stroke:none;" d="M345 245L346 246L345 245z"/>
<path style="fill:#f9c33d; stroke:none;" d="M442 245L443 246L442 245z"/>
<path style="fill:#717270; stroke:none;" d="M594 245L595 246L594 245z"/>
<path style="fill:#f9c33d; stroke:none;" d="M821 245L822 246L821 245M72 246L73 247L72 246z"/>
<path style="fill:#cb726b; stroke:none;" d="M152 246L153 247L152 246z"/>
<path style="fill:#f9c33d; stroke:none;" d="M293 246L294 247L293 246z"/>
<path style="fill:#cb726b; stroke:none;" d="M443 246L444 247L443 246z"/>
<path style="fill:#f9c33d; stroke:none;" d="M594 246L594 259L595 259L594 246M680 246L681 247L680 246M873 246L874 247L873 246M73 247L74 248L73 247M98 247L99 248L98 247M154 247L155 248L154 247z"/>
<path style="fill:#cb726b; stroke:none;" d="M294 247L295 248L294 247z"/>
<path style="fill:#f9c33d; stroke:none;" d="M679 247L680 248L679 247M729 247L730 248L729 247M776 247L777 248L776 247z"/>
<path style="fill:#cb726b; stroke:none;" d="M874 247L875 248L874 247M97 248L98 249L97 248M295 248L296 249L295 248z"/>
<path style="fill:#f9c33d; stroke:none;" d="M341 248L342 249L341 248M384 248L385 249L384 248M678 248L679 249L678 248M728 248L729 249L728 248M777 248L778 249L777 248M914 248L915 249L914 248z"/>
<path style="fill:#cb726b; stroke:none;" d="M962 248L963 249L962 248M96 249L97 250L96 249z"/>
<path style="fill:#f9c33d; stroke:none;" d="M296 249L297 250L296 249M383 249L384 250L383 249M727 249L728 250L727 249z"/>
<path style="fill:#cb726b; stroke:none;" d="M778 249L779 250L778 249z"/>
<path style="fill:#f9c33d; stroke:none;" d="M963 249L964 250L963 249M95 250L96 251L95 250M297 250L298 251L297 250M382 250L383 251L382 250M726 250L727 251L726 250z"/>
<path style="fill:#cb726b; stroke:none;" d="M779 250L780 251L779 250z"/>
<path style="fill:#f9c33d; stroke:none;" d="M94 251L95 252L94 251M266.667 251.333L267.333 251.667L266.667 251.333z"/>
<path style="fill:#cb726b; stroke:none;" d="M268 251L269 252L268 251M448 251L449 252L448 251z"/>
<path style="fill:#f9c33d; stroke:none;" d="M725 251L726 252L725 251M780 251L781 252L780 251z"/>
<path style="fill:#cb726b; stroke:none;" d="M847 251L848 252L847 251z"/>
<path style="fill:#f9c33d; stroke:none;" d="M936 251L936 252L940 252L936 251z"/>
<path style="fill:#cb726b; stroke:none;" d="M940 251L941 252L940 251z"/>
<path style="fill:#f9c33d; stroke:none;" d="M37.6667 252.333L38.3333 252.667L37.6667 252.333M51 252L52 253L51 252M93 252L94 253L93 252z"/>
<path style="fill:#cb726b; stroke:none;" d="M121 252L122 253L121 252z"/>
<path style="fill:#f9c33d; stroke:none;" d="M122 252L123 253L122 252z"/>
<path style="fill:#fffffe; stroke:none;" d="M123 252.465C88.1829 258.744 96.1281 317.794 132 311.384C166.984 305.133 159.604 245.862 123 252.465z"/>
<path style="fill:#f9c33d; stroke:none;" d="M134 252L135 253L134 252z"/>
<path style="fill:#cb726b; stroke:none;" d="M234 252L235 253L234 252z"/>
<path style="fill:#f9c33d; stroke:none;" d="M260 252L261 253L260 252z"/>
<path style="fill:#fffffe; stroke:none;" d="M242 275L291 275C289.37 256.444 268.906 245.386 253.015 256.108C246.555 260.466 243.692 267.688 242 275z"/>
<path style="fill:#f9c33d; stroke:none;" d="M273 252L274 253L273 252z"/>
<path style="fill:#cb726b; stroke:none;" d="M408 252L409 253L408 252z"/>
<path style="fill:#f9c33d; stroke:none;" d="M409 252L410 253L409 252z"/>
<path style="fill:#fffffe; stroke:none;" d="M410 252.468C375.205 259.032 384.023 317.815 420 311.384C455.643 305.013 446.876 245.511 410 252.468z"/>
<path style="fill:#f9c33d; stroke:none;" d="M421 252L422 253L421 252M449 252L450 253L449 252z"/>
<path style="fill:#cb726b; stroke:none;" d="M841 252L842 253L841 252z"/>
<path style="fill:#f9c33d; stroke:none;" d="M842 252L843 253L842 252z"/>
<path style="fill:#fffffe; stroke:none;" d="M843 252.468C808.371 259 817.291 318.061 853 311.381C887.559 304.917 879.414 245.598 843 252.468z"/>
<path style="fill:#f9c33d; stroke:none;" d="M854 252L855 253L854 252z"/>
<path style="fill:#cb726b; stroke:none;" d="M855 252L856 253L855 252M912 252L913 253L912 252M932 252L933 253L932 252M9 253L10 254L9 253z"/>
<path style="fill:#f9c33d; stroke:none;" d="M34 253L35 254L34 253M54 253L55 254L54 253M77 253L78 254L77 253M118 253L119 254L118 253M137 253L138 254L137 253M233 253L234 254L233 253M257 253L258 254L257 253M276 253L277 254L276 253M405 253L406 254L405 253z"/>
<path style="fill:#cb726b; stroke:none;" d="M425 253L426 254L425 253z"/>
<path style="fill:#f9c33d; stroke:none;" d="M450 253L451 254L450 253z"/>
<path style="fill:#cb726b; stroke:none;" d="M838 253L839 254L838 253M858 253L859 254L858 253M930 253L931 254L930 253z"/>
<path style="fill:#f9c33d; stroke:none;" d="M8 254L9 255L8 254M56 254L57 255L56 254M255 254L256 255L255 254M278 254L279 255L278 254M300 254L301 255L300 254z"/>
<path style="fill:#cb726b; stroke:none;" d="M379 254L380 255L379 254z"/>
<path style="fill:#f9c33d; stroke:none;" d="M403 254L404 255L403 254M427 254L428 255L427 254M782 254L783 255L782 254M812 254L813 255L812 254M836 254L837 255L836 254M860 254L861 255L860 254M911 254L912 255L911 254M929 254L930 255L929 254z"/>
<path style="fill:#cb726b; stroke:none;" d="M947 254L948 255L947 254M964 254L965 255L964 254z"/>
<path style="fill:#f9c33d; stroke:none;" d="M30 255L31 256L30 255M58 255L59 256L58 255M141 255L142 256L141 255M253 255L254 256L253 255M378 255L379 256L378 255M401 255L402 256L401 255z"/>
<path style="fill:#cb726b; stroke:none;" d="M429 255L430 256L429 255z"/>
<path style="fill:#f9c33d; stroke:none;" d="M693 255L694 256L693 255M702.667 255.333L703.333 255.667L702.667 255.333z"/>
<path style="fill:#cb726b; stroke:none;" d="M748 255L749 256L748 255z"/>
<path style="fill:#f9c33d; stroke:none;" d="M749 255L750 256L749 255M758 255L759 256L758 255z"/>
<path style="fill:#cb726b; stroke:none;" d="M759 255L760 256L759 255z"/>
<path style="fill:#f9c33d; stroke:none;" d="M834 255L835 256L834 255z"/>
<path style="fill:#cb726b; stroke:none;" d="M862 255L863 256L862 255M911 255L912 256L911 255z"/>
<path style="fill:#f9c33d; stroke:none;" d="M928 255L929 256L928 255z"/>
<path style="fill:#cb726b; stroke:none;" d="M948 255L949 256L948 255M962 255L963 256L962 255M28 256L29 257L28 256z"/>
<path style="fill:#f9c33d; stroke:none;" d="M74 256L75 257L74 256M90 256L91 257L90 256M112 256L113 257L112 256z"/>
<path style="fill:#cb726b; stroke:none;" d="M143 256L144 257L143 256z"/>
<path style="fill:#f9c33d; stroke:none;" d="M231 256L232 257L231 256M252 256L253 257L252 256M281 256L282 257L281 256z"/>
<path style="fill:#cb726b; stroke:none;" d="M356 256L357 257L356 256z"/>
<path style="fill:#f9c33d; stroke:none;" d="M357.667 256.333L358.333 256.667L357.667 256.333M363 256L363 257L366 257L363 256z"/>
<path style="fill:#cb726b; stroke:none;" d="M399 256L400 257L399 256M452 256L453 257L452 256z"/>
<path style="fill:#f9c33d; stroke:none;" d="M690 256L691 257L690 256M706 256L707 257L706 256z"/>
<path style="fill:#cb726b; stroke:none;" d="M745 256L746 257L745 256z"/>
<path style="fill:#f9c33d; stroke:none;" d="M761 256L762 257L761 256z"/>
<path style="fill:#cb726b; stroke:none;" d="M949 256L950 257L949 256M960 256L961 257L960 256z"/>
<path style="fill:#f9c33d; stroke:none;" d="M6 257L7 258L6 257M27 257L28 258L27 257M73 257L74 258L73 257M144 257L145 258L144 257M282 257L283 258L282 257z"/>
<path style="fill:#cb726b; stroke:none;" d="M352 257L353 258L352 257z"/>
<path style="fill:#f9c33d; stroke:none;" d="M398 257L399 258L398 257z"/>
<path style="fill:#cb726b; stroke:none;" d="M432 257L433 258L432 257z"/>
<path style="fill:#717270; stroke:none;" d="M595 257L599 259L599 258L595 257M601 258L601 259L623 259L601 258z"/>
<path style="fill:#cb726b; stroke:none;" d="M708 257L709 258L708 257z"/>
<path style="fill:#f9c33d; stroke:none;" d="M743 257L744 258L743 257M763 257L764 258L763 257M784 257L785 258L784 257M810 257L811 258L810 257M831 257L832 258L831 257M927 257L928 258L927 257M950 257L951 258L950 257z"/>
<path style="fill:#cb726b; stroke:none;" d="M958 257L959 258L958 257z"/>
<path style="fill:#f9c33d; stroke:none;" d="M62 258L63 259L62 258M72 258L73 259L72 258z"/>
<path style="fill:#cb726b; stroke:none;" d="M89 258L90 259L89 258z"/>
<path style="fill:#f9c33d; stroke:none;" d="M230 258L231 259L230 258M283 258L284 259L283 258M350 258L351 259L350 258M376 258L377 259L376 258M433 258L434 259L433 258M623 258L624 259L623 258z"/>
<path style="fill:#cb726b; stroke:none;" d="M686 258L687 259L686 258z"/>
<path style="fill:#f9c33d; stroke:none;" d="M709 258L710 259L709 258M830 258L831 259L830 258z"/>
<path style="fill:#cb726b; stroke:none;" d="M956 258L957 259L956 258z"/>
<path style="fill:#f9c33d; stroke:none;" d="M63 259L64 260L63 259M71 259L72 260L71 259z"/>
<path style="fill:#cb726b; stroke:none;" d="M108 259L109 260L108 259z"/>
<path style="fill:#f9c33d; stroke:none;" d="M284 259L285 260L284 259M303 259L304 260L303 259z"/>
<path style="fill:#cb726b; stroke:none;" d="M348 259L349 260L348 259z"/>
<path style="fill:#f9c33d; stroke:none;" d="M434 259L435 260L434 259M454 259L455 260L454 259M710 259L711 260L710 259M740 259L741 260L740 259M785 259L786 260L785 259z"/>
<path style="fill:#cb726b; stroke:none;" d="M926 259L927 260L926 259z"/>
<path style="fill:#f9c33d; stroke:none;" d="M64 260L65 261L64 260M70 260L71 261L70 260z"/>
<path style="fill:#cb726b; stroke:none;" d="M229 260L230 261L229 260M285 260L286 261L285 260z"/>
<path style="fill:#f9c33d; stroke:none;" d="M347 260L348 261L347 260M375 260L376 261L375 260M435 260L436 261L435 260M711 260L712 261L711 260M739 260L740 261L739 260M910 260L910 265L911 265L910 260M926 260L927 261L926 260M23 261L24 262L23 261M65 261L66 262L65 261M148 261L149 262L148 261M247 261L248 262L247 261M346 261L347 262L346 261z"/>
<path style="fill:#cb726b; stroke:none;" d="M436 261L437 262L436 261z"/>
<path style="fill:#f9c33d; stroke:none;" d="M455 261L456 262L455 261z"/>
<path style="fill:#cb726b; stroke:none;" d="M712 261L713 262L712 261z"/>
<path style="fill:#f9c33d; stroke:none;" d="M738 261L739 262L738 261M767 261L768 262L767 261M827 261L828 262L827 261M22 262L23 263L22 262M66 262L67 263L66 262z"/>
<path style="fill:#cb726b; stroke:none;" d="M149 262L150 263L149 262M228 262L229 263L228 262M304 262L305 263L304 262z"/>
<path style="fill:#f9c33d; stroke:none;" d="M345 262L346 263L345 262M374 262L375 263L374 262M393 262L394 263L393 262z"/>
<path style="fill:#cb726b; stroke:none;" d="M737 262L738 263L737 262z"/>
<path style="fill:#f9c33d; stroke:none;" d="M786 262L787 263L786 262M826 262L827 263L826 262M926.333 262.667L926.667 263.333L926.333 262.667M287 263L288 264L287 263M456 263L457 264L456 263z"/>
<path style="fill:#cb726b; stroke:none;" d="M681 263L682 264L681 263z"/>
<path style="fill:#f9c33d; stroke:none;" d="M713 263L714 264L713 263z"/>
<path style="fill:#cb726b; stroke:none;" d="M786 263L787 264L786 263M807 263L808 264L807 263z"/>
<path style="fill:#f9c33d; stroke:none;" d="M870 263L871 264L870 263z"/>
<path style="fill:#cb726b; stroke:none;" d="M86 264L87 265L86 264M104 264L105 265L104 264z"/>
<path style="fill:#f9c33d; stroke:none;" d="M227 264L228 265L227 264z"/>
<path style="fill:#cb726b; stroke:none;" d="M245 264L246 265L245 264z"/>
<path style="fill:#f9c33d; stroke:none;" d="M305 264L306 265L305 264z"/>
<path style="fill:#717270; stroke:none;" d="M532 264L532 293L558 293L558 264L532 264z"/>
<path style="fill:#cb726b; stroke:none;" d="M563 264L564 265L563 264z"/>
<path style="fill:#717270; stroke:none;" d="M589 327L589 264L564.603 265.028L563 277L563 313L564.603 325.972L589 327M594.667 264.333L595.333 264.667L594.667 264.333z"/>
<path style="fill:#2e87c3; stroke:none;" d="M594 293C599.538 293.819 619.393 296.421 622.806 291.482C625.954 286.928 623.581 271.015 624 265C618.933 263.502 598.655 261.268 595.028 265.742C591.086 270.604 594 286.833 594 293z"/>
<path style="fill:#717270; stroke:none;" d="M602.667 264.333L603.333 264.667L602.667 264.333z"/>
<path style="fill:#f9c33d; stroke:none;" d="M736 264L737 265L736 264M2 265L3 266L2 265z"/>
<path style="fill:#cb726b; stroke:none;" d="M20 265L21 266L20 265M151 265L152 266L151 265z"/>
<path style="fill:#f9c33d; stroke:none;" d="M288 265L289 266L288 265z"/>
<path style="fill:#cb726b; stroke:none;" d="M343 265L344 266L343 265M373 265L374 266L373 265z"/>
<path style="fill:#f9c33d; stroke:none;" d="M391 265L392 266L391 265z"/>
<path style="fill:#cb726b; stroke:none;" d="M680 265L681 266L680 265M714 265L715 266L714 265z"/>
<path style="fill:#f9c33d; stroke:none;" d="M769 265L770 266L769 265M806 265L807 266L806 265z"/>
<path style="fill:#cb726b; stroke:none;" d="M824 265L825 266L824 265z"/>
<path style="fill:#f9c33d; stroke:none;" d="M871 265L872 266L871 265M103 266L104 267L103 266z"/>
<path style="fill:#cb726b; stroke:none;" d="M244 266L245 267L244 266z"/>
<path style="fill:#f9c33d; stroke:none;" d="M457 266L458 267L457 266M623 266L624 267L623 266M787.333 266.667L787.667 267.333L787.333 266.667z"/>
<path style="fill:#cb726b; stroke:none;" d="M927 266L928 267L927 266M19 267L20 268L19 267M85 267L86 268L85 267M289 267L290 268L289 267z"/>
<path style="fill:#f9c33d; stroke:none;" d="M390 267L391 268L390 267M735 267L736 268L735 267M823 267L824 268L823 267M872 267L873 268L872 267z"/>
<path style="fill:#cb726b; stroke:none;" d="M928 267L929 268L928 267z"/>
<path style="fill:#f9c33d; stroke:none;" d="M1 268L2 269L1 268z"/>
<path style="fill:#cb726b; stroke:none;" d="M102 268L103 269L102 268M226 268L227 269L226 268z"/>
<path style="fill:#f9c33d; stroke:none;" d="M306 268L307 269L306 268M342 268L343 269L342 268z"/>
<path style="fill:#cb726b; stroke:none;" d="M372 268L373 269L372 268z"/>
<path style="fill:#f9c33d; stroke:none;" d="M440 268L441 269L440 268z"/>
<path style="fill:#cb726b; stroke:none;" d="M679 268L680 269L679 268z"/>
<path style="fill:#f9c33d; stroke:none;" d="M770 268L771 269L770 268M805 268L806 269L805 268M911 268L912 269L911 268M243 269L244 270L243 269z"/>
<path style="fill:#cb726b; stroke:none;" d="M389 269L390 270L389 269z"/>
<path style="fill:#f9c33d; stroke:none;" d="M458 269L459 270L458 269M715 269L716 270L715 269z"/>
<path style="fill:#cb726b; stroke:none;" d="M805 269L806 270L805 269M873 269L874 270L873 269M931 269L932 270L931 269z"/>
<path style="fill:#f9c33d; stroke:none;" d="M18 270L19 271L18 270M84 270L85 271L84 270M153.333 270.667L153.667 271.333L153.333 270.667z"/>
<path style="fill:#cb726b; stroke:none;" d="M290 270L291 271L290 270M441 270L442 271L441 270M458 270L459 271L458 270M734 270L735 271L734 270z"/>
<path style="fill:#f9c33d; stroke:none;" d="M822 270L823 271L822 270z"/>
<path style="fill:#cb726b; stroke:none;" d="M933 270L934 271L933 270M101 271L102 272L101 271M341 271L342 272L341 271z"/>
<path style="fill:#f9c33d; stroke:none;" d="M371.333 271.667L371.667 272.333L371.333 271.667M441 271L442 272L441 271M734 271L735 272L734 271M912 271L913 272L912 271z"/>
<path style="fill:#cb726b; stroke:none;" d="M935 271L936 272L935 271z"/>
<path style="fill:#f9c33d; stroke:none;" d="M0.333333 272.667L0.666667 273.333L0.333333 272.667M101 272L102 273L101 272M225 272L226 273L225 272M242 272L243 273L242 272M307 272L308 273L307 272M341 272L342 273L341 272z"/>
<path style="fill:#cb726b; stroke:none;" d="M874 272L875 273L874 272z"/>
<path style="fill:#f9c33d; stroke:none;" d="M938 272L939 273L938 272z"/>
<path style="fill:#cb726b; stroke:none;" d="M17 273L18 274L17 273M225 273L226 274L225 273M307 273L308 274L307 273M371 273L372 274L371 273z"/>
<path style="fill:#f9c33d; stroke:none;" d="M388 273L389 274L388 273M623 273L623 287L624 287L623 273M678.333 273.667L678.667 274.333L678.333 273.667z"/>
<path style="fill:#cb726b; stroke:none;" d="M771 273L772 274L771 273z"/>
<path style="fill:#f9c33d; stroke:none;" d="M804 273L805 274L804 273M874 273L875 274L874 273M913 273L914 274L913 273z"/>
<path style="fill:#cb726b; stroke:none;" d="M0 274L1 275L0 274z"/>
<path style="fill:#f9c33d; stroke:none;" d="M17 274L18 275L17 274z"/>
<path style="fill:#cb726b; stroke:none;" d="M154 274L155 275L154 274z"/>
<path style="fill:#f9c33d; stroke:none;" d="M291 274L292 275L291 274M459.333 274.667L459.667 275.333L459.333 274.667M771.333 274.667L771.667 275.333L771.333 274.667M788 274L788 327L789 327L789 291L788 274z"/>
<path style="fill:#cb726b; stroke:none;" d="M804 274L805 275L804 274z"/>
<path style="fill:#f9c33d; stroke:none;" d="M821 274L822 275L821 274z"/>
<path style="fill:#cb726b; stroke:none;" d="M914 274L915 275L914 274M943 274L944 275L943 274z"/>
<path style="fill:#f9c33d; stroke:none;" d="M154 275L155 276L154 275M442.333 275.667L442.667 276.333L442.333 275.667M716 275L716 280L717 280L716 275M946 275L947 276L946 275M83 276L83 280L84 280L83 276M100 276L100 279L101 279L100 276z"/>
<path style="fill:#cb726b; stroke:none;" d="M459 276L460 277L459 276M948 276L949 277L948 276M733 277L734 278L733 277z"/>
<path style="fill:#f9c33d; stroke:none;" d="M951 277L952 278L951 277z"/>
<path style="fill:#cb726b; stroke:none;" d="M340 278L341 279L340 278z"/>
<path style="fill:#f9c33d; stroke:none;" d="M733 278L733 327L734 327C734 313.212 738.309 290.652 733 278M953 278L954 279L953 278M340 279L340 286L341 286L340 279z"/>
<path style="fill:#cb726b; stroke:none;" d="M919 279L920 280L919 279M83 280L84 281L83 280M922 281L923 282L922 281z"/>
<path style="fill:#f9c33d; stroke:none;" d="M958 281L959 282L958 281z"/>
<path style="fill:#cb726b; stroke:none;" d="M83 283L84 284L83 283M926 283L927 284L926 283z"/>
<path style="fill:#f9c33d; stroke:none;" d="M83 284L83 288L84 288L83 284M928 284L929 285L928 284M100.333 285.667L100.667 286.333L100.333 285.667z"/>
<path style="fill:#cb726b; stroke:none;" d="M931 285L932 286L931 285z"/>
<path style="fill:#f9c33d; stroke:none;" d="M933 286L934 287L933 286z"/>
<path style="fill:#cb726b; stroke:none;" d="M100 287L101 288L100 287z"/>
<path style="fill:#f9c33d; stroke:none;" d="M154.333 287.667L154.667 288.333L154.333 287.667M442.333 287.667L442.667 288.333L442.333 287.667z"/>
<path style="fill:#cb726b; stroke:none;" d="M459 287L460 288L459 287M936 287L937 288L936 287M964 287L965 288L964 287z"/>
<path style="fill:#f9c33d; stroke:none;" d="M242 288L242 289L306 289L286 288L242 288z"/>
<path style="fill:#cb726b; stroke:none;" d="M306 288L307 289L306 288z"/>
<path style="fill:#f9c33d; stroke:none;" d="M307 288L308 289L307 288M459.333 288.667L459.667 289.333L459.333 288.667z"/>
<path style="fill:#cb726b; stroke:none;" d="M804 288L805 289L804 288z"/>
<path style="fill:#f9c33d; stroke:none;" d="M821.333 288.667L821.667 289.333L821.333 288.667M938 288L939 289L938 288z"/>
<path style="fill:#cb726b; stroke:none;" d="M0 289L1 290L0 289z"/>
<path style="fill:#f9c33d; stroke:none;" d="M17 289L18 290L17 289z"/>
<path style="fill:#cb726b; stroke:none;" d="M154 289L155 290L154 289z"/>
<path style="fill:#f9c33d; stroke:none;" d="M388.333 289.667L388.667 290.333L388.333 289.667M804 289L805 290L804 289M874 289L875 290L874 289z"/>
<path style="fill:#cb726b; stroke:none;" d="M941 289L942 290L941 289z"/>
<path style="fill:#f9c33d; stroke:none;" d="M0 290L1 291L0 290z"/>
<path style="fill:#cb726b; stroke:none;" d="M225 290L226 291L225 290z"/>
<path style="fill:#f9c33d; stroke:none;" d="M242 290L243 291L242 290M371 290L372 291L371 290z"/>
<path style="fill:#cb726b; stroke:none;" d="M874 290L875 291L874 290z"/>
<path style="fill:#f9c33d; stroke:none;" d="M943 290L944 291L943 290M101 291L102 292L101 291M225 291L226 292L225 291z"/>
<path style="fill:#cb726b; stroke:none;" d="M242 291L243 292L242 291z"/>
<path style="fill:#f9c33d; stroke:none;" d="M623 291L624 292L623 291M945 291L946 292L945 291z"/>
<path style="fill:#cb726b; stroke:none;" d="M966 291L967 292L966 291z"/>
<path style="fill:#f9c33d; stroke:none;" d="M84 292L85 293L84 292M153 292L154 293L153 292M441 292L442 293L441 292z"/>
<path style="fill:#717270; stroke:none;" d="M623 292L624 293L623 292z"/>
<path style="fill:#f9c33d; stroke:none;" d="M822 292L823 293L822 292M18 293L19 294L18 293z"/>
<path style="fill:#cb726b; stroke:none;" d="M153 293L154 294L153 293z"/>
<path style="fill:#f9c33d; stroke:none;" d="M389 293L390 294L389 293z"/>
<path style="fill:#cb726b; stroke:none;" d="M458 293L459 294L458 293z"/>
<path style="fill:#f9c33d; stroke:none;" d="M532 293L532 294L558 294L532 293M595.667 293.333L596.333 293.667L595.667 293.333M598 293L599 294L598 293M600 293L600 294L604 294L600 293M606 293L606 294L609 294L606 293M610.667 293.333L611.333 293.667L610.667 293.333M613 293L613 294L618 294L613 293M620 293L620 294L623 294L620 293z"/>
<path style="fill:#cb726b; stroke:none;" d="M805 293L806 294L805 293M822 293L823 294L822 293z"/>
<path style="fill:#f9c33d; stroke:none;" d="M873 293L874 294L873 293M948 293L949 294L948 293M1 294L2 295L1 294M102 294L103 295L102 294M243 294L244 295L243 294z"/>
<path style="fill:#cb726b; stroke:none;" d="M372 294L373 295L372 294z"/>
<path style="fill:#f9c33d; stroke:none;" d="M805 294L806 295L805 294M949 294L950 295L949 294M967 294L968 295L967 294M152 295L153 296L152 295M226 295L227 296L226 295M372 295L373 296L372 295M440 295L441 296L440 295M823 295L824 296L823 295z"/>
<path style="fill:#cb726b; stroke:none;" d="M967 295L968 296L967 295z"/>
<path style="fill:#f9c33d; stroke:none;" d="M85 296L86 297L85 296M244 296L245 297L244 296z"/>
<path style="fill:#cb726b; stroke:none;" d="M390 296L391 297L390 296M526 296L527 297L526 296M872 296L873 297L872 296z"/>
<path style="fill:#f9c33d; stroke:none;" d="M950 296L951 297L950 296z"/>
<path style="fill:#cb726b; stroke:none;" d="M2 297L3 298L2 297z"/>
<path style="fill:#f9c33d; stroke:none;" d="M151 297L152 298L151 297M292 297L293 298L292 297M439 297L440 298L439 297M457 297L458 298L457 297M806 297L807 298L806 297z"/>
<path style="fill:#cb726b; stroke:none;" d="M86 298L87 299L86 298z"/>
<path style="fill:#f9c33d; stroke:none;" d="M227 298L228 299L227 298M245 298L246 299L245 298M373 298L374 299L373 298z"/>
<path style="fill:#cb726b; stroke:none;" d="M391 298L392 299L391 298z"/>
<path style="fill:#f9c33d; stroke:none;" d="M594 298L594 327L624 327C624 320.827 626.913 304.613 622.972 299.742C619.075 294.925 599.881 298 594 298z"/>
<path style="fill:#cb726b; stroke:none;" d="M871 298L872 299L871 298z"/>
<path style="fill:#f9c33d; stroke:none;" d="M918 298L919 299L918 298M150 299L151 300L150 299M297 299L298 300L297 299z"/>
<path style="fill:#cb726b; stroke:none;" d="M456 299L457 300L456 299M807 299L808 300L807 299z"/>
<path style="fill:#f9c33d; stroke:none;" d="M825 299L826 300L825 299M921 299L922 300L921 299M3 300L4 301L3 300M105 300L106 301L105 300M246 300L247 301L246 300M290 300L291 301L290 300z"/>
<path style="fill:#cb726b; stroke:none;" d="M299 300L300 301L299 300M374 300L375 301L374 300z"/>
<path style="fill:#f9c33d; stroke:none;" d="M913 300L914 301L913 300z"/>
<path style="fill:#cb726b; stroke:none;" d="M66 301L67 302L66 301z"/>
<path style="fill:#f9c33d; stroke:none;" d="M87 301L88 302L87 301M106 301L107 302L106 301M302 301L303 302L302 301M869 301L870 302L869 301z"/>
<path style="fill:#cb726b; stroke:none;" d="M911 301L912 302L911 301z"/>
<path style="fill:#f9c33d; stroke:none;" d="M922 301L923 302L922 301M4 302L5 303L4 302M23 302L24 303L23 302z"/>
<path style="fill:#cb726b; stroke:none;" d="M148 302L149 303L148 302z"/>
<path style="fill:#f9c33d; stroke:none;" d="M304 302L305 303L304 302z"/>
<path style="fill:#cb726b; stroke:none;" d="M375 302L376 303L375 302z"/>
<path style="fill:#f9c33d; stroke:none;" d="M394 302L395 303L394 302M455 302L456 303L455 302M808 302L809 303L808 302M868 302L869 303L868 302M908 302L909 303L908 302z"/>
<path style="fill:#cb726b; stroke:none;" d="M64 303L65 304L64 303z"/>
<path style="fill:#f9c33d; stroke:none;" d="M88 303L89 304L88 303z"/>
<path style="fill:#cb726b; stroke:none;" d="M147 303L148 304L147 303M248 303L249 304L248 303M288 303L289 304L288 303z"/>
<path style="fill:#f9c33d; stroke:none;" d="M395 303L396 304L395 303z"/>
<path style="fill:#cb726b; stroke:none;" d="M828 303L829 304L828 303z"/>
<path style="fill:#f9c33d; stroke:none;" d="M906 303L907 304L906 303M950 303L951 304L950 303z"/>
<path style="fill:#cb726b; stroke:none;" d="M967 303L968 304L967 303z"/>
<path style="fill:#f9c33d; stroke:none;" d="M5 304L6 305L5 304M25 304L26 305L25 304z"/>
<path style="fill:#cb726b; stroke:none;" d="M63 304L64 305L63 304z"/>
<path style="fill:#f9c33d; stroke:none;" d="M146 304L147 305L146 304z"/>
<path style="fill:#cb726b; stroke:none;" d="M249 304L250 305L249 304M287 304L288 305L287 304M306 304L307 305L306 304M376 304L377 305L376 304z"/>
<path style="fill:#f9c33d; stroke:none;" d="M396 304L397 305L396 304z"/>
<path style="fill:#cb726b; stroke:none;" d="M434 304L435 305L434 304M829 304L830 305L829 304z"/>
<path style="fill:#f9c33d; stroke:none;" d="M924 304L925 305L924 304M967 304L968 305L967 304M26 305L27 306L26 305M89 305L90 306L89 305z"/>
<path style="fill:#cb726b; stroke:none;" d="M145 305L146 306L145 305M250 305L251 306L250 305M397 305L398 306L397 305z"/>
<path style="fill:#f9c33d; stroke:none;" d="M865 305L866 306L865 305z"/>
<path style="fill:#cb726b; stroke:none;" d="M27 306L28 307L27 306M90 306L91 307L90 306z"/>
<path style="fill:#f9c33d; stroke:none;" d="M111 306L112 307L111 306z"/>
<path style="fill:#cb726b; stroke:none;" d="M144 306L145 307L144 306M231 306L232 307L231 306z"/>
<path style="fill:#f9c33d; stroke:none;" d="M305 306L306 307L305 306M377 306L378 307L377 306M864 306L865 307L864 306M907 306L908 307L907 306M7 307L8 308L7 307M29 307L30 308L29 307M59 307L60 308L59 307z"/>
<path style="fill:#cb726b; stroke:none;" d="M112 307L113 308L112 307z"/>
<path style="fill:#f9c33d; stroke:none;" d="M283 307L284 308L283 307M430 307L431 308L430 307M452 307L453 308L452 307M811 307L812 308L811 307M833 307L834 308L833 307z"/>
<path style="fill:#cb726b; stroke:none;" d="M948 307L949 308L948 307z"/>
<path style="fill:#f9c33d; stroke:none;" d="M91 308L92 309L91 308M114 308L115 309L114 308z"/>
<path style="fill:#cb726b; stroke:none;" d="M141 308L142 309L141 308z"/>
<path style="fill:#f9c33d; stroke:none;" d="M232 308L233 309L232 308z"/>
<path style="fill:#cb726b; stroke:none;" d="M254 308L255 309L254 308z"/>
<path style="fill:#f9c33d; stroke:none;" d="M281 308L282 309L281 308z"/>
<path style="fill:#cb726b; stroke:none;" d="M401 308L402 309L401 308z"/>
<path style="fill:#f9c33d; stroke:none;" d="M861 308L862 309L861 308M908 308L909 309L908 308z"/>
<path style="fill:#cb726b; stroke:none;" d="M947 308L948 309L947 308z"/>
<path style="fill:#f9c33d; stroke:none;" d="M966 308L967 309L966 308M32 309L33 310L32 309z"/>
<path style="fill:#cb726b; stroke:none;" d="M56 309L57 310L56 309M92 309L93 310L92 309z"/>
<path style="fill:#f9c33d; stroke:none;" d="M116 309L117 310L116 309z"/>
<path style="fill:#cb726b; stroke:none;" d="M139 309L140 310L139 309M233 309L234 310L233 309z"/>
<path style="fill:#f9c33d; stroke:none;" d="M256 309L257 310L256 309M279 309L280 310L279 309M379 309L380 310L379 309z"/>
<path style="fill:#cb726b; stroke:none;" d="M403 309L404 310L403 309z"/>
<path style="fill:#f9c33d; stroke:none;" d="M859 309L860 310L859 309M946 309L947 310L946 309M9 310L10 311L9 310z"/>
<path style="fill:#cb726b; stroke:none;" d="M35 310L36 311L35 310z"/>
<path style="fill:#f9c33d; stroke:none;" d="M53 310L54 311L53 310z"/>
<path style="fill:#cb726b; stroke:none;" d="M118 310L119 311L118 310z"/>
<path style="fill:#f9c33d; stroke:none;" d="M136 310L137 311L136 310M276 310L277 311L276 310M302 310L303 311L302 310z"/>
<path style="fill:#cb726b; stroke:none;" d="M380 310L381 311L380 310z"/>
<path style="fill:#f9c33d; stroke:none;" d="M406 310L407 311L406 310M424 310L425 311L424 310M813 310L814 311L813 310M839 310L840 311L839 310M909 310L910 311L909 310z"/>
<path style="fill:#cb726b; stroke:none;" d="M930 310L931 311L930 310z"/>
<path style="fill:#f9c33d; stroke:none;" d="M944 310L945 311L944 310M965 310L966 311L965 310z"/>
<path style="fill:#cb726b; stroke:none;" d="M10 311L11 312L10 311z"/>
<path style="fill:#f9c33d; stroke:none;" d="M39.6667 311.333L40.3333 311.667L39.6667 311.333M49 311L50 312L49 311z"/>
<path style="fill:#cb726b; stroke:none;" d="M50 311L51 312L50 311M78 311L79 312L78 311M122 311L123 312L122 311z"/>
<path style="fill:#f9c33d; stroke:none;" d="M123 311L124 312L123 311M131.667 311.333L132.333 311.667L131.667 311.333z"/>
<path style="fill:#cb726b; stroke:none;" d="M133 311L134 312L133 311z"/>
<path style="fill:#f9c33d; stroke:none;" d="M262.667 311.333L263.333 311.667L262.667 311.333M272 311L273 312L272 311z"/>
<path style="fill:#cb726b; stroke:none;" d="M273 311L274 312L273 311z"/>
<path style="fill:#f9c33d; stroke:none;" d="M410.667 311.333L411.333 311.667L410.667 311.333M419.667 311.333L420.333 311.667L419.667 311.333M449 311L450 312L449 311M814 311L815 312L814 311M843.667 311.333L844.333 311.667L843.667 311.333M852.667 311.333L853.333 311.667L852.667 311.333M933 311L934 312L933 311z"/>
<path style="fill:#cb726b; stroke:none;" d="M942 311L943 312L942 311M11 312L12 313L11 312z"/>
<path style="fill:#f9c33d; stroke:none;" d="M77 312L78 313L77 312M235 312L236 313L235 312M448 312L449 313L448 312M815 312L816 313L815 312M964 312L965 313L964 312M76 313L77 314L76 313M95 313L96 314L95 313M236 313L237 314L236 313z"/>
<path style="fill:#cb726b; stroke:none;" d="M447 313L448 314L447 313z"/>
<path style="fill:#f9c33d; stroke:none;" d="M816 313L817 314L816 313M911 313L912 314L911 313z"/>
<path style="fill:#cb726b; stroke:none;" d="M75 314L76 315L75 314z"/>
<path style="fill:#f9c33d; stroke:none;" d="M96 314L97 315L96 314M237 314L238 315L237 314z"/>
<path style="fill:#cb726b; stroke:none;" d="M446 314L447 315L446 314M817 314L818 315L817 314M74 315L75 316L74 315z"/>
<path style="fill:#f9c33d; stroke:none;" d="M97 315L98 316L97 315z"/>
<path style="fill:#cb726b; stroke:none;" d="M238 315L239 316L238 315z"/>
<path style="fill:#f9c33d; stroke:none;" d="M445 315L446 316L445 315z"/>
<path style="fill:#cb726b; stroke:none;" d="M818 315L819 316L818 315z"/>
<path style="fill:#f9c33d; stroke:none;" d="M962 315L963 316L962 315z"/>
<path style="fill:#cb726b; stroke:none;" d="M15 316L16 317L15 316z"/>
<path style="fill:#f9c33d; stroke:none;" d="M73 316L74 317L73 316M153.667 316.333L154.333 316.667L153.667 316.333M239 316L240 317L239 316M444 316L445 317L444 316M819 316L820 317L819 316M913 316L914 317L913 316z"/>
<path style="fill:#cb726b; stroke:none;" d="M961 316L962 317L961 316z"/>
<path style="fill:#f9c33d; stroke:none;" d="M16 317L17 318L16 317M240 317L241 318L240 317M914 317L915 318L914 317z"/>
<path style="fill:#cb726b; stroke:none;" d="M960 317L961 318L960 317z"/>
<path style="fill:#f9c33d; stroke:none;" d="M17 318L18 319L17 318z"/>
<path style="fill:#cb726b; stroke:none;" d="M101 318L102 319L101 318z"/>
<path style="fill:#f9c33d; stroke:none;" d="M294 318L295 319L294 318M388 318L389 319L388 318M871 318L872 319L871 318z"/>
<path style="fill:#cb726b; stroke:none;" d="M959 318L960 319L959 318z"/>
<path style="fill:#f9c33d; stroke:none;" d="M69 319L70 320L69 319M102 319L103 320L102 319M149 319L150 320L149 319z"/>
<path style="fill:#cb726b; stroke:none;" d="M440 319L441 320L440 319M823 319L824 320L823 319z"/>
<path style="fill:#f9c33d; stroke:none;" d="M870 319L871 320L870 319z"/>
<path style="fill:#cb726b; stroke:none;" d="M916 319L917 320L916 319M958 319L959 320L958 319z"/>
<path style="fill:#f9c33d; stroke:none;" d="M20 320L21 321L20 320z"/>
<path style="fill:#cb726b; stroke:none;" d="M104 320L105 321L104 320z"/>
<path style="fill:#f9c33d; stroke:none;" d="M244 320L245 321L244 320z"/>
<path style="fill:#cb726b; stroke:none;" d="M291 320L292 321L291 320z"/>
<path style="fill:#f9c33d; stroke:none;" d="M391 320L392 321L391 320M868 320L869 321L868 320M917 320L918 321L917 320M957 320L958 321L957 320z"/>
<path style="fill:#cb726b; stroke:none;" d="M22 321L23 322L22 321z"/>
<path style="fill:#f9c33d; stroke:none;" d="M66 321L67 322L66 321M146 321L147 322L146 321z"/>
<path style="fill:#cb726b; stroke:none;" d="M246 321L247 322L246 321M393 321L394 322L393 321z"/>
<path style="fill:#f9c33d; stroke:none;" d="M437 321L438 322L437 321M826 321L827 322L826 321M956 321L957 322L956 321z"/>
<path style="fill:#cb726b; stroke:none;" d="M64 322L65 323L64 322M144 322L145 323L144 322z"/>
<path style="fill:#f9c33d; stroke:none;" d="M394 322L395 323L394 322M435 322L436 323L435 322M828 322L829 323L828 322M865 322L866 323L865 322z"/>
<path style="fill:#cb726b; stroke:none;" d="M920 322L921 323L920 322z"/>
<path style="fill:#f9c33d; stroke:none;" d="M954 322L955 323L954 322z"/>
<path style="fill:#cb726b; stroke:none;" d="M26 323L27 324L26 323z"/>
<path style="fill:#f9c33d; stroke:none;" d="M62 323L63 324L62 323z"/>
<path style="fill:#cb726b; stroke:none;" d="M142 323L143 324L142 323z"/>
<path style="fill:#f9c33d; stroke:none;" d="M249 323L250 324L249 323M286 323L287 324L286 323M433 323L434 324L433 323M830 323L831 324L830 323M863 323L864 324L863 323M28 324L29 325L28 324z"/>
<path style="fill:#cb726b; stroke:none;" d="M59 324L60 325L59 324M112 324L113 325L112 324M140 324L141 325L140 324z"/>
<path style="fill:#f9c33d; stroke:none;" d="M252 324L253 325L252 324z"/>
<path style="fill:#cb726b; stroke:none;" d="M283 324L284 325L283 324z"/>
<path style="fill:#f9c33d; stroke:none;" d="M399 324L400 325L399 324M431 324L432 325L431 324M832 324L833 325L832 324z"/>
<path style="fill:#cb726b; stroke:none;" d="M833 324L834 325L833 324z"/>
<path style="fill:#f9c33d; stroke:none;" d="M861 324L862 325L861 324z"/>
<path style="fill:#cb726b; stroke:none;" d="M950 324L951 325L950 324M56 325L57 326L56 325z"/>
<path style="fill:#f9c33d; stroke:none;" d="M57 325L58 326L57 325M115 325L116 326L115 325M138 325L139 326L138 325M255 325L256 326L255 325z"/>
<path style="fill:#cb726b; stroke:none;" d="M280 325L281 326L280 325z"/>
<path style="fill:#f9c33d; stroke:none;" d="M281 325L282 326L281 325M402 325L403 326L402 325z"/>
<path style="fill:#cb726b; stroke:none;" d="M427 325L428 326L427 325M836 325L837 326L836 325z"/>
<path style="fill:#f9c33d; stroke:none;" d="M858 325L859 326L858 325M926 325L927 326L926 325M948 325L949 326L948 325M36 326L37 327L36 326z"/>
<path style="fill:#cb726b; stroke:none;" d="M51 326L52 327L51 326z"/>
<path style="fill:#f9c33d; stroke:none;" d="M52 326L53 327L52 326M119 326L120 327L119 326z"/>
<path style="fill:#cb726b; stroke:none;" d="M120 326L121 327L120 326M133 326L134 327L133 326z"/>
<path style="fill:#f9c33d; stroke:none;" d="M134 326L135 327L134 326z"/>
<path style="fill:#cb726b; stroke:none;" d="M192 326L193 327L192 326z"/>
<path style="fill:#f9c33d; stroke:none;" d="M259 326L260 327L259 326z"/>
<path style="fill:#cb726b; stroke:none;" d="M260 326L261 327L260 326M275 326L276 327L275 326z"/>
<path style="fill:#f9c33d; stroke:none;" d="M276 326L277 327L276 326M406.667 326.333L407.333 326.667L406.667 326.333z"/>
<path style="fill:#cb726b; stroke:none;" d="M422 326L423 327L422 326z"/>
<path style="fill:#f9c33d; stroke:none;" d="M423 326L424 327L423 326z"/>
<path style="fill:#cb726b; stroke:none;" d="M563 326L564 327L563 326z"/>
<path style="fill:#f9c33d; stroke:none;" d="M840 326L841 327L840 326z"/>
<path style="fill:#cb726b; stroke:none;" d="M841 326L842 327L841 326M853 326L854 327L853 326z"/>
<path style="fill:#f9c33d; stroke:none;" d="M854.667 326.333L855.333 326.667L854.667 326.333M930 326L931 327L930 326z"/>
<path style="fill:#cb726b; stroke:none;" d="M931 326L932 327L931 326M943 326L944 327L943 326z"/>
<path style="fill:#f9c33d; stroke:none;" d="M944 326L945 327L944 326z"/>
<path style="fill:#cb726b; stroke:none;" d="M155 327L156 328L155 327z"/>
<path style="fill:#f9c33d; stroke:none;" d="M553 327L554 328L553 327M661 327L661 328L678 328L661 327z"/>
<path style="fill:#cb726b; stroke:none;" d="M717 327L718 328L717 327z"/>
<path style="fill:#f9c33d; stroke:none;" d="M718 327L718 328L732 328L718 327z"/>
<path style="fill:#cb726b; stroke:none;" d="M732 327L733 328L732 327z"/>
<path style="fill:#f9c33d; stroke:none;" d="M772 327L772 328L788 328L772 327M875 327L875 328L892 328L875 327z"/>
</svg>
