<?xml version="1.0" encoding="utf-8"?>
<!-- Generator: Adobe Illustrator 19.2.1, SVG Export Plug-In . SVG Version: 6.00 Build 0)  -->
<svg version="1.1" id="layer" xmlns="http://www.w3.org/2000/svg" xmlns:xlink="http://www.w3.org/1999/xlink" x="0px" y="0px"
	 viewBox="0 0 652 652" style="enable-background:new 0 0 652 652;" xml:space="preserve">
<style type="text/css">
	.st0{fill:#26235D;}
	.st1{fill:#DE1B54;}
</style>
<path class="st0" d="M157.8,318.4c-5.8-1.4-10.5-2.6-10.5-7c0-4.8,5.3-6.5,10.3-6.5c3.4,0,6.5,0.5,9.6,1.7c0.5,0.2,1,0.2,1.2,0.2
	c1.9,0,2.9-1.7,2.9-3.1c0-1.4-0.7-2.4-1.9-2.9c-3.6-1.4-7.9-2.2-12.2-2.2c-11.3,0-16.3,6.5-16.3,12.9c0,8.9,8.4,11,15.8,12.9
	c5.5,1.4,10.1,2.6,10.1,6.2c0,4.3-3.4,6.5-10.3,6.5c-4.1,0-8.1-0.7-11.7-2.4c-0.5-0.2-1-0.2-1.4-0.2c-1.9,0-2.9,1.4-2.9,3.1
	c0,1.2,1,2.4,1.9,2.9c4.6,1.9,9.6,2.9,14.6,2.9c9.6,0,16.1-5,16.1-12.5C173.1,322,165,320.1,157.8,318.4z M219.6,299.2
	c-1.7,0-3.1,1.4-3.1,3.4v24.2c0,7.4-6,10.8-11.5,10.8c-5.5,0-11.5-3.4-11.5-10.8v-24.2c0-1.7-1.4-3.4-3.4-3.4
	c-1.7,0-3.1,1.4-3.1,3.4v24c0,11.3,9.1,17,18,17c8.9,0,18-5.8,18-17v-24C223,300.9,221.3,299.2,219.6,299.2z M268.8,299.7h-30.4
	c-1.7,0-3.1,1.4-3.1,3.1s1.2,3.1,3.1,3.1h12v34.5c0,1.7,1.4,3.1,3.1,3.1c1.9,0,3.4-1.4,3.4-3.1v-34.8h12c1.7,0,3.1-1.4,3.1-3.1
	C271.9,300.9,270.7,299.7,268.8,299.7z M316.5,299.2c-1.7,0-3.1,1.4-3.1,3.4v15.8h-22.1v-15.8c0-1.7-1.4-3.4-3.4-3.4
	c-1.7,0-3.1,1.4-3.1,3.4v37.6c0,1.7,1.4,3.1,3.1,3.1c1.9,0,3.4-1.4,3.4-3.1v-15.8h22.1v15.8c0,1.7,1.4,3.1,3.1,3.1
	c1.9,0,3.4-1.4,3.4-3.1v-37.6C319.8,300.9,318.4,299.2,316.5,299.2z M365.4,305.7c1.7,0,3.1-1.4,3.1-3.1s-1.4-3.1-3.1-3.1h-24.4
	c-1.7,0-3.1,1.4-3.1,3.4v36.9c0,1.7,1.4,3.1,3.1,3.1h24.4c1.7,0,3.1-1.4,3.1-3.1s-1.4-3.1-3.1-3.1h-21.1v-12.5h18.9
	c1.7,0,3.1-1.4,3.1-3.1s-1.4-3.1-3.1-3.1h-18.9v-12.5L365.4,305.7L365.4,305.7z M417.4,312.4c0-8.1-6.2-12.9-17-12.9h-14.1
	c-1.7,0-3.1,1.4-3.1,3.4v37.4c0,1.7,1.4,3.1,3.1,3.1c1.9,0,3.4-1.4,3.4-3.1v-13.7h12.2c7.9,0,8.9,6.2,8.9,11.7v1.9
	c0,1.9,1.4,3.1,3.4,3.1c1.7,0,3.1-1.4,3.1-3.1v-2.9c0-2.6-0.5-11.3-6.7-13.9C414.5,321.5,417.4,317.4,417.4,312.4z M410.7,312.9
	c0,4.6-4.1,7.4-11,7.4h-10.5v-14.6h10.3C409.5,305.7,410.7,309.5,410.7,312.9z M459.3,336.6h-19.4v-34c0-1.7-1.4-3.4-3.4-3.4
	c-1.7,0-3.1,1.4-3.1,3.4v36.2c0,2.4,1.9,4.3,4.3,4.3h21.6c1.9,0,3.4-1.4,3.4-3.1C462.7,338,461.2,336.6,459.3,336.6z M497.9,302.1
	c-0.7-1.7-2.2-2.9-4.1-2.9h-0.7c-1.7,0-3.1,1-4.1,2.9l-15.6,36.7c-0.2,0.5-0.2,1-0.2,1.4c0,1.9,1.4,3.1,3.1,3.1
	c1.4,0,2.4-0.7,3.1-1.9l3.8-9.1h20.1l3.8,9.1c0.5,1.2,1.7,1.9,3.1,1.9c1.9,0,3.1-1.4,3.1-3.1c0-0.5,0-1-0.2-1.4L497.9,302.1z
	 M501,326.1h-15.1l7.4-18L501,326.1z M561.7,299.2c-1.7,0-3.1,1.4-3.1,3.4V334L536,301.4c-1-1.2-2.4-1.9-3.8-1.9h-0.7
	c-2.4,0-4.6,1.9-4.6,4.6v36.4c0,1.7,1.4,3.1,3.1,3.1c1.9,0,3.4-1.4,3.4-3.1v-31.6l22.8,32.8c1,1.2,2.2,1.9,3.6,1.9h0.7
	c2.4,0,4.6-1.9,4.6-4.6v-36.4C564.8,300.9,563.3,299.2,561.7,299.2z M614.6,306.6c-4.1-4.6-9.8-7-16.5-7h-12.2
	c-1.7,0-3.1,1.4-3.1,3.4V340c0,1.7,1.4,3.1,3.1,3.1h12.2c7,0,12.5-2.4,16.5-7c3.4-3.8,5.5-9.3,5.5-14.9
	C620.1,315.7,618.2,310.5,614.6,306.6z M613.7,321.3c0,9.3-6.5,15.6-16.3,15.6H589v-31.2h8.4C607.2,305.7,613.7,311.9,613.7,321.3z"
	/>
<path class="st0" d="M78.9,301.4c-1.9-0.2-3.6-0.2-5.5,0c-1,0-1.7,0.5-2.2,1.4c-0.5,1-0.2,1.9,0.5,2.6l34.5,33.3
	c0.5,0.5,1,0.7,1.9,0.7c1.2,0,1.7-0.7,1.9-1.4c0.7-1.7,1.2-3.4,1.7-5.3c0.2-1,0-2.2-0.7-2.9l-0.2-0.2L83,303.3
	C81.8,302.1,80.4,301.6,78.9,301.4z M53.1,341.4c1.9,0.2,3.6,0.2,5.5,0c1,0,1.7-0.5,2.2-1.4c0.5-1,0.2-1.9-0.5-2.6l-34.5-33.1
	c-0.5-0.5-1-0.7-1.9-0.7c-1.2,0-1.7,0.7-1.9,1.4c-0.7,1.7-1.2,3.4-1.7,5.3c-0.2,1,0,2.2,0.7,2.9l0.2,0.2L49,339.7
	C50.2,340.7,51.6,341.4,53.1,341.4z"/>
<path class="st1" d="M48.3,281.7l15.6,15.8c4.3,4.3,10.8-2.4,6.7-6.7l-13.4-13.9c-1.7-1.9-5-0.2-7,0.5
	C48.3,277.9,46.6,279.8,48.3,281.7z M100,306.4c4.3,4.3,10.8-2.4,6.7-6.7l-20.6-20.4c-2.2-2.2-5.3-2.9-7.9-3.6c-1.7-0.5-3.6-1-5.3-1
	c-1,0-1.7,0-2.2,1c-0.2,0.7-0.2,1.4,0.2,1.9L100,306.4z M100.8,349.3L38.4,287c-1.7-1.7-3.8-0.2-5,1.2c-1.4,1.4-3.4,3.6-1.4,5.5
	L94.3,356c1.7,1.7,3.6,0.5,5-1C100.5,353.6,102.7,351.5,100.8,349.3z M84,361.3l-15.6-15.6c-4.3-4.3-10.8,2.4-6.7,6.7l13.4,13.9
	c1.7,1.9,5,0.2,7-0.5C84.2,364.9,85.9,363.2,84,361.3z M32.4,336.6c-4.3-4.3-10.8,2.4-6.7,6.7l20.6,20.4c2.2,2.2,5.3,2.9,7.9,3.6
	c1.7,0.5,3.6,1,5.3,1c1,0,1.7,0,2.2-1c0.2-0.7,0.2-1.4-0.2-1.9L32.4,336.6z"/>
</svg>
